{
    "accessors": [
        {
            "bufferView": 0,
            "componentType": 5126,
            "count": 8472,
            "max": [
                0.011775897815823555,
                0.1143498569726944,
                0.056399762630462646
            ],
            "min": [
                -0.01177589688450098,
                -1.862645149230957e-09,
                -0.05639973655343056
            ],
            "type": "VEC3"
        },
        {
            "bufferView": 1,
            "componentType": 5126,
            "count": 8472,
            "type": "VEC2"
        },
        {
            "bufferView": 2,
            "componentType": 5126,
            "count": 8472,
            "type": "VEC3"
        },
        {
            "bufferView": 3,
            "componentType": 5123,
            "count": 11829,
            "type": "SCALAR"
        },
        {
            "bufferView": 4,
            "componentType": 5123,
            "count": 3,
            "type": "SCALAR"
        },
        {
            "bufferView": 5,
            "componentType": 5123,
            "count": 8142,
            "type": "SCALAR"
        },
        {
            "bufferView": 6,
            "componentType": 5123,
            "count": 3,
            "type": "SCALAR"
        },
        {
            "bufferView": 7,
            "componentType": 5123,
            "count": 11829,
            "type": "SCALAR"
        }
    ],
    "asset": {
        "generator": "Adobe Creative Cloud",
        "version": "2.0"
    },
    "bufferViews": [
        {
            "buffer": 0,
            "byteLength": 101664
        },
        {
            "buffer": 0,
            "byteLength": 67776,
            "byteOffset": 101664
        },
        {
            "buffer": 0,
            "byteLength": 101664,
            "byteOffset": 169440
        },
        {
            "buffer": 0,
            "byteLength": 23658,
            "byteOffset": 271104
        },
        {
            "buffer": 0,
            "byteLength": 6,
            "byteOffset": 294762
        },
        {
            "buffer": 0,
            "byteLength": 16284,
            "byteOffset": 294768
        },
        {
            "buffer": 0,
            "byteLength": 6,
            "byteOffset": 311052
        },
        {
            "buffer": 0,
            "byteLength": 23658,
            "byteOffset": 311058
        },
        {
            "buffer": 0,
            "byteLength": 291272,
            "byteOffset": 334716
        },
        {
            "buffer": 0,
            "byteLength": 6628,
            "byteOffset": 625988
        }
    ],
    "buffers": [
        {
            "byteLength": 632616,
            "uri": "Set 3D Camera Position.bin"
        }
    ],
    "extensionsRequired": [
        "KHR_texture_transform",
        "KHR_texture_transform",
        "KHR_texture_transform",
        "KHR_texture_transform"
    ],
    "extensionsUsed": [
        "KHR_texture_transform",
        "KHR_texture_transform",
        "KHR_texture_transform",
        "KHR_texture_transform"
    ],
    "images": [
        {
            "bufferView": 8,
            "mimeType": "image/png",
            "name": "Layer 0.PNG"
        },
        {
            "bufferView": 9,
            "mimeType": "image/png",
            "name": "Layer 0 Extrusion Material - Default Texture.PNG"
        }
    ],
    "materials": [
        {
            "alphaMode": "OPAQUE",
            "doubleSided": true,
            "emissiveFactor": [
                0.0,
                0.0,
                0.0
            ],
            "name": "Layer 0 Front Inflation Material",
            "pbrMetallicRoughness": {
                "baseColorFactor": [
                    0.5,
                    0.5,
                    0.5,
                    1.0
                ],
                "baseColorTexture": {
                    "extensions": {
                        "KHR_texture_transform": {
                            "offset": [
                                0.18696455657482147,
                                0.1427183449268341
                            ],
                            "rotation": 0.0,
                            "scale": [
                                0.7004958391189575,
                                0.7195192575454712
                            ]
                        }
                    },
                    "index": 0
                },
                "metallicFactor": 0.07999999821186066,
                "roughnessFactor": 0.3333333432674408
            }
        },
        {
            "alphaMode": "OPAQUE",
            "doubleSided": true,
            "emissiveFactor": [
                0.0,
                0.0,
                0.0
            ],
            "name": "Layer 0 Front Bevel Material",
            "pbrMetallicRoughness": {
                "baseColorFactor": [
                    0.5,
                    0.5,
                    0.5,
                    1.0
                ],
                "baseColorTexture": {
                    "extensions": {
                        "KHR_texture_transform": {
                            "offset": [
                                0.18696455657482147,
                                0.1427183449268341
                            ],
                            "rotation": 0.0,
                            "scale": [
                                0.7004958391189575,
                                0.7195192575454712
                            ]
                        }
                    },
                    "index": 0
                },
                "metallicFactor": 0.07999999821186066,
                "roughnessFactor": 0.3333333432674408
            }
        },
        {
            "alphaMode": "OPAQUE",
            "doubleSided": true,
            "emissiveFactor": [
                0.0,
                0.0,
                0.0
            ],
            "name": "Layer 0 Extrusion Material",
            "pbrMetallicRoughness": {
                "baseColorFactor": [
                    0.5,
                    0.5,
                    0.5,
                    1.0
                ],
                "baseColorTexture": {
                    "index": 1
                },
                "metallicFactor": 0.07999999821186066,
                "roughnessFactor": 0.3333333432674408
            }
        },
        {
            "alphaMode": "OPAQUE",
            "doubleSided": true,
            "emissiveFactor": [
                0.0,
                0.0,
                0.0
            ],
            "name": "Layer 0 Back Bevel Material",
            "pbrMetallicRoughness": {
                "baseColorFactor": [
                    0.5,
                    0.5,
                    0.5,
                    1.0
                ],
                "baseColorTexture": {
                    "extensions": {
                        "KHR_texture_transform": {
                            "offset": [
                                0.18696455657482147,
                                0.1427183449268341
                            ],
                            "rotation": 0.0,
                            "scale": [
                                0.7004958391189575,
                                0.7195192575454712
                            ]
                        }
                    },
                    "index": 0
                },
                "metallicFactor": 0.07999999821186066,
                "roughnessFactor": 0.3333333432674408
            }
        },
        {
            "alphaMode": "OPAQUE",
            "doubleSided": true,
            "emissiveFactor": [
                0.0,
                0.0,
                0.0
            ],
            "name": "Layer 0 Back Inflation Material",
            "pbrMetallicRoughness": {
                "baseColorFactor": [
                    0.5,
                    0.5,
                    0.5,
                    1.0
                ],
                "baseColorTexture": {
                    "extensions": {
                        "KHR_texture_transform": {
                            "offset": [
                                0.18696455657482147,
                                0.1427183449268341
                            ],
                            "rotation": 0.0,
                            "scale": [
                                0.7004958391189575,
                                0.7195192575454712
                            ]
                        }
                    },
                    "index": 0
                },
                "metallicFactor": 0.07999999821186066,
                "roughnessFactor": 0.3333333432674408
            }
        }
    ],
    "meshes": [
        {
            "name": "Layer 0",
            "primitives": [
                {
                    "attributes": {
                        "NORMAL": 2,
                        "POSITION": 0,
                        "TEXCOORD_0": 1
                    },
                    "indices": 3,
                    "material": 0,
                    "mode": 4
                },
                {
                    "attributes": {
                        "NORMAL": 2,
                        "POSITION": 0,
                        "TEXCOORD_0": 1
                    },
                    "indices": 4,
                    "material": 1,
                    "mode": 4
                },
                {
                    "attributes": {
                        "NORMAL": 2,
                        "POSITION": 0,
                        "TEXCOORD_0": 1
                    },
                    "indices": 5,
                    "material": 2,
                    "mode": 4
                },
                {
                    "attributes": {
                        "NORMAL": 2,
                        "POSITION": 0,
                        "TEXCOORD_0": 1
                    },
                    "indices": 6,
                    "material": 3,
                    "mode": 4
                },
                {
                    "attributes": {
                        "NORMAL": 2,
                        "POSITION": 0,
                        "TEXCOORD_0": 1
                    },
                    "indices": 7,
                    "material": 4,
                    "mode": 4
                }
            ]
        }
    ],
    "nodes": [
        {
            "matrix": [
                -5.831631369801471e-06,
                7.124969556571159e-07,
                0.00015879888087511063,
                0.0,
                -2.5610081138438545e-05,
                0.00015682156663388014,
                -1.644113694965199e-06,
                0.0,
                -0.00015672184235882014,
                -2.5652927433839068e-05,
                -5.640255949401762e-06,
                0.0,
                0.013788004405796528,
                -0.022974122315645218,
                -0.08606623113155365,
                0.9999999403953552
            ],
            "mesh": 0,
            "name": "Layer 0"
        }
    ],
    "scene": 0,
    "scenes": [
        {
            "name": "Scene",
            "nodes": [
                0
            ]
        }
    ],
    "textures": [
        {
            "source": 0
        },
        {
            "source": 1
        }
    ]
}
