{
    "accessors": [
        {
            "bufferView": 0,
            "componentType": 5126,
            "count": 8472,
            "max": [
                0.0021614693105220795,
                0.11539413034915924,
                0.056384988129138947
            ],
            "min": [
                -0.002161468379199505,
                0.0,
                -0.05638495087623596
            ],
            "type": "VEC3"
        },
        {
            "bufferView": 1,
            "componentType": 5126,
            "count": 8472,
            "type": "VEC2"
        },
        {
            "bufferView": 2,
            "componentType": 5126,
            "count": 8472,
            "type": "VEC3"
        },
        {
            "bufferView": 3,
            "componentType": 5123,
            "count": 11829,
            "type": "SCALAR"
        },
        {
            "bufferView": 4,
            "componentType": 5123,
            "count": 3,
            "type": "SCALAR"
        },
        {
            "bufferView": 5,
            "componentType": 5123,
            "count": 8142,
            "type": "SCALAR"
        },
        {
            "bufferView": 6,
            "componentType": 5123,
            "count": 3,
            "type": "SCALAR"
        },
        {
            "bufferView": 7,
            "componentType": 5123,
            "count": 11829,
            "type": "SCALAR"
        }
    ],
    "asset": {
        "generator": "Adobe Creative Cloud",
        "version": "2.0"
    },
    "bufferViews": [
        {
            "buffer": 0,
            "byteLength": 101664
        },
        {
            "buffer": 0,
            "byteLength": 67776,
            "byteOffset": 101664
        },
        {
            "buffer": 0,
            "byteLength": 101664,
            "byteOffset": 169440
        },
        {
            "buffer": 0,
            "byteLength": 23658,
            "byteOffset": 271104
        },
        {
            "buffer": 0,
            "byteLength": 6,
            "byteOffset": 294762
        },
        {
            "buffer": 0,
            "byteLength": 16284,
            "byteOffset": 294768
        },
        {
            "buffer": 0,
            "byteLength": 6,
            "byteOffset": 311052
        },
        {
            "buffer": 0,
            "byteLength": 23658,
            "byteOffset": 311058
        },
        {
            "buffer": 0,
            "byteLength": 334672,
            "byteOffset": 334716
        },
        {
            "buffer": 0,
            "byteLength": 81860,
            "byteOffset": 669388
        }
    ],
    "buffers": [
        {
            "byteLength": 751248,
            "uri": "thandava22.bin"
        }
    ],
    "extensionsRequired": [
        "KHR_texture_transform",
        "KHR_texture_transform",
        "KHR_texture_transform",
        "KHR_texture_transform"
    ],
    "extensionsUsed": [
        "KHR_texture_transform",
        "KHR_texture_transform",
        "KHR_texture_transform",
        "KHR_texture_transform"
    ],
    "images": [
        {
            "bufferView": 8,
            "mimeType": "image/jpeg",
            "name": "Layer 0.JPG"
        },
        {
            "bufferView": 9,
            "mimeType": "image/jpeg",
            "name": "Layer 0 Extrusion Material - Default Texture.JPG"
        }
    ],
    "materials": [
        {
            "alphaMode": "OPAQUE",
            "doubleSided": true,
            "emissiveFactor": [
                0.0,
                0.0,
                0.0
            ],
            "name": "Layer 0 Front Inflation Material",
            "pbrMetallicRoughness": {
                "baseColorFactor": [
                    0.5,
                    0.5,
                    0.5,
                    1.0
                ],
                "baseColorTexture": {
                    "extensions": {
                        "KHR_texture_transform": {
                            "offset": [
                                0.18696455657482147,
                                0.1427183449268341
                            ],
                            "rotation": 0.0,
                            "scale": [
                                0.7004958391189575,
                                0.7195192575454712
                            ]
                        }
                    },
                    "index": 0
                },
                "metallicFactor": 0.07999999821186066,
                "roughnessFactor": 0.3333333432674408
            }
        },
        {
            "alphaMode": "OPAQUE",
            "doubleSided": true,
            "emissiveFactor": [
                0.0,
                0.0,
                0.0
            ],
            "name": "Layer 0 Front Bevel Material",
            "pbrMetallicRoughness": {
                "baseColorFactor": [
                    0.5,
                    0.5,
                    0.5,
                    1.0
                ],
                "baseColorTexture": {
                    "extensions": {
                        "KHR_texture_transform": {
                            "offset": [
                                0.18696455657482147,
                                0.1427183449268341
                            ],
                            "rotation": 0.0,
                            "scale": [
                                0.7004958391189575,
                                0.7195192575454712
                            ]
                        }
                    },
                    "index": 0
                },
                "metallicFactor": 0.07999999821186066,
                "roughnessFactor": 0.3333333432674408
            }
        },
        {
            "alphaMode": "OPAQUE",
            "doubleSided": true,
            "emissiveFactor": [
                0.0,
                0.0,
                0.0
            ],
            "name": "Layer 0 Extrusion Material",
            "pbrMetallicRoughness": {
                "baseColorFactor": [
                    0.5,
                    0.5,
                    0.5,
                    1.0
                ],
                "baseColorTexture": {
                    "index": 1
                },
                "metallicFactor": 0.07999999821186066,
                "roughnessFactor": 0.3333333432674408
            }
        },
        {
            "alphaMode": "OPAQUE",
            "doubleSided": true,
            "emissiveFactor": [
                0.0,
                0.0,
                0.0
            ],
            "name": "Layer 0 Back Bevel Material",
            "pbrMetallicRoughness": {
                "baseColorFactor": [
                    0.5,
                    0.5,
                    0.5,
                    1.0
                ],
                "baseColorTexture": {
                    "extensions": {
                        "KHR_texture_transform": {
                            "offset": [
                                0.18696455657482147,
                                0.1427183449268341
                            ],
                            "rotation": 0.0,
                            "scale": [
                                0.7004958391189575,
                                0.7195192575454712
                            ]
                        }
                    },
                    "index": 0
                },
                "metallicFactor": 0.07999999821186066,
                "roughnessFactor": 0.3333333432674408
            }
        },
        {
            "alphaMode": "OPAQUE",
            "doubleSided": true,
            "emissiveFactor": [
                0.0,
                0.0,
                0.0
            ],
            "name": "Layer 0 Back Inflation Material",
            "pbrMetallicRoughness": {
                "baseColorFactor": [
                    0.5,
                    0.5,
                    0.5,
                    1.0
                ],
                "baseColorTexture": {
                    "extensions": {
                        "KHR_texture_transform": {
                            "offset": [
                                0.18696455657482147,
                                0.1427183449268341
                            ],
                            "rotation": 0.0,
                            "scale": [
                                0.7004958391189575,
                                0.7195192575454712
                            ]
                        }
                    },
                    "index": 0
                },
                "metallicFactor": 0.07999999821186066,
                "roughnessFactor": 0.3333333432674408
            }
        }
    ],
    "meshes": [
        {
            "name": "Layer 0",
            "primitives": [
                {
                    "attributes": {
                        "NORMAL": 2,
                        "POSITION": 0,
                        "TEXCOORD_0": 1
                    },
                    "indices": 3,
                    "material": 0,
                    "mode": 4
                },
                {
                    "attributes": {
                        "NORMAL": 2,
                        "POSITION": 0,
                        "TEXCOORD_0": 1
                    },
                    "indices": 4,
                    "material": 1,
                    "mode": 4
                },
                {
                    "attributes": {
                        "NORMAL": 2,
                        "POSITION": 0,
                        "TEXCOORD_0": 1
                    },
                    "indices": 5,
                    "material": 2,
                    "mode": 4
                },
                {
                    "attributes": {
                        "NORMAL": 2,
                        "POSITION": 0,
                        "TEXCOORD_0": 1
                    },
                    "indices": 6,
                    "material": 3,
                    "mode": 4
                },
                {
                    "attributes": {
                        "NORMAL": 2,
                        "POSITION": 0,
                        "TEXCOORD_0": 1
                    },
                    "indices": 7,
                    "material": 4,
                    "mode": 4
                }
            ]
        }
    ],
    "nodes": [
        {
            "matrix": [
                -4.01826270035599e-07,
                6.614964718210103e-07,
                0.00015890508075244725,
                0.0,
                -1.5990408428478986e-06,
                0.00015889752830844373,
                -6.655085940110439e-07,
                0.0,
                -0.00015889843052718788,
                -1.6007047634047922e-06,
                -3.95145974607658e-07,
                0.0,
                -0.0005440795794129372,
                -0.023249253630638123,
                -0.08631540089845657,
                0.9999999403953552
            ],
            "mesh": 0,
            "name": "Layer 0"
        }
    ],
    "scene": 0,
    "scenes": [
        {
            "name": "Scene",
            "nodes": [
                0
            ]
        }
    ],
    "textures": [
        {
            "source": 0
        },
        {
            "source": 1
        }
    ]
}
